<svg xmlns="http://www.w3.org/2000/svg" viewBox="0 0 1024 1024">
<defs>
<linearGradient id="bg" x1="0" y1="0" x2="1" y2="1"><stop offset="0" stop-color="#08243F"/><stop offset="1" stop-color="#123B61"/></linearGradient>
<linearGradient id="acc" x1="0" y1="0" x2="1" y2="1"><stop offset="0" stop-color="#FFB24A"/><stop offset="1" stop-color="#F47A18"/></linearGradient>
<filter id="s"><feDropShadow dx="0" dy="18" stdDeviation="18" flood-opacity=".22"/></filter>
</defs>
<rect width="1024" height="1024" rx="210" fill="url(#bg)"/>
<circle cx="820" cy="170" r="170" fill="#1B567E" opacity=".35"/>
<circle cx="170" cy="850" r="180" fill="#0A2D4D" opacity=".7"/>
<g filter="url(#s)">
<rect x="205" y="160" width="520" height="650" rx="64" fill="#fff"/>
<rect x="205" y="160" width="520" height="150" rx="64" fill="#F4F7FA"/>
<rect x="205" y="246" width="520" height="64" fill="#F4F7FA"/>
<circle cx="268" cy="226" r="18" fill="#F47A18"/>
<circle cx="320" cy="226" r="18" fill="#0B6AA7"/>
<circle cx="372" cy="226" r="18" fill="#D8E3EC"/>
<rect x="270" y="358" width="250" height="34" rx="17" fill="#0B2D4A"/>
<rect x="270" y="418" width="360" height="22" rx="11" fill="#B8C7D5"/>
<rect x="270" y="458" width="300" height="22" rx="11" fill="#D7E1EA"/>
<rect x="270" y="520" width="370" height="170" rx="28" fill="#EAF2F7"/>
<rect x="305" y="555" width="108" height="100" rx="18" fill="#0B6AA7" opacity=".92"/>
<path d="M327 628l22-24 22 16 25-31 26 30" fill="none" stroke="#fff" stroke-width="12" stroke-linecap="round" stroke-linejoin="round"/>
</g>
<g transform="translate(610 610)" filter="url(#s)">
<circle cx="140" cy="140" r="140" fill="url(#acc)"/>
<circle cx="140" cy="140" r="106" fill="#fff" opacity=".18"/>
<path d="M92 140h92M140 92v96" stroke="#fff" stroke-width="18" stroke-linecap="round"/>
<path d="M78 200c25 16 53 24 82 24 46 0 88-20 117-53" fill="none" stroke="#fff" stroke-width="12" stroke-linecap="round" opacity=".9"/>
</g>
<g font-family="Arial,Microsoft JhengHei,sans-serif" font-weight="800" fill="#fff">
<text x="116" y="895" font-size="54" letter-spacing="2">VECTECH</text>
<text x="118" y="942" font-size="28" opacity=".86">PRODUCT TRAINING</text>
</g>
</svg>